<svg xmlns="http://www.w3.org/2000/svg" xmlns:xlink="http://www.w3.org/1999/xlink" fill="none" version="1.1" width="20" height="20" viewBox="0 0 20 20"><defs><clipPath id="master_svg0_1_5618"><rect x="0" y="0" width="20" height="20" rx="0"/></clipPath></defs><g clip-path="url(#master_svg0_1_5618)"><g><path d="M18.834348046875,9.62622Q14.915948046875,4.375,10.000078046875,4.375Q9.106478046875,4.375,7.537568046875,4.908246Q5.339848046875,5.655217,3.708668046875,7.01881Q2.143195046875,8.31643,1.1658340468750001,9.62622Q1.1054120468750002,9.70719,1.073580046875,9.80308Q1.041748046875,9.89897,1.041748046875,10Q1.041748046875,10.10103,1.073580046875,10.19692Q1.1054120468750002,10.2928,1.1658340468750001,10.37378Q5.084258046875,15.625,10.000078046875,15.625Q10.995148046875,15.625,12.642148046875,15.0949Q14.998548046875,14.33657,16.320048046875,12.9575Q17.865848046875,11.67162,18.834348046875,10.37378Q18.894748046875,10.29281,18.926548046875,10.19692Q18.958448046875,10.10103,18.958448046875,10Q18.958448046875,9.89897,18.926548046875,9.80308Q18.894748046875,9.7072,18.834348046875,9.62622ZM7.939828046875,6.09175Q9.313108046875,5.625,10.000078046875,5.625Q14.114748046875,5.625,17.543348046875,9.995809999999999Q16.719348046874998,11.00296,15.493748046875,12.01881Q15.464648046875,12.04294,15.438648046875,12.070409999999999Q14.334548046875,13.23712,12.259148046875,13.90505Q10.798958046875,14.375,10.000078046875,14.375Q5.885378046875,14.375,2.456771046875,10.00418Q3.280828046875,8.99703,4.506378046875,7.98119Q5.962758046875,6.76373,7.939828046875,6.09175Z" fill-rule="evenodd" fill="#7C7C84" fill-opacity="1"/></g><g><path d="M10.093148046875001,7.722047249755859Q9.380768046875,7.732746249755859,8.819919046875,7.9015032497558595L8.819916046875,7.901502249755859Q7.897145946875,8.17916024975586,7.510614046875,8.99611524975586Q7.291748046875,9.45870224975586,7.291748046875,10.000002249755859Q7.291748046875,11.121822249755859,8.085004046875,11.915082249755859Q8.878261046875,12.708332249755859,10.000078046875,12.708332249755859Q11.160168046875,12.708332249755859,11.937518046874999,11.94631224975586Q11.999548046874999,11.88550224975586,12.042648046875,11.81008224975586Q12.843318046875,10.40892224975586,12.716488046875,9.43109224975586Q12.588988046875,8.448150249755859,11.648418046875,8.006563249755859Q11.012988046875,7.70823424975586,10.093148046875001,7.722047249755859ZM8.541748046875,10.000002249755859Q8.541748046875,9.29056224975586,9.180088046875,9.098490249755859L9.180088046875,9.098490249755859Q9.573928046875,8.979986249755859,10.111918046875001,8.971907249755859Q10.743088046875,8.96242824975586,11.117188046875,9.13806524975586Q11.437508046875,9.28845224975586,11.476868046875,9.591882249755859Q11.546808046875,10.131112249755859,11.003158046875,11.108672249755859Q10.603918046875,11.458332249755859,10.000078046875,11.458332249755859Q9.396028046875,11.458332249755859,8.968888046875,11.03119224975586Q8.541748046875,10.60405224975586,8.541748046875,10.000002249755859Z" fill-rule="evenodd" fill="#7C7C84" fill-opacity="1"/></g></g></svg>