<svg width="193" height="62" viewBox="0 0 193 62" fill="none" xmlns="http://www.w3.org/2000/svg">
<rect width="193" height="62" rx="30" fill="#F5B501"/>
<path d="M58.52 35.856H63.992V39H54.416V22.032H58.52V35.856ZM78.5969 31.944C78.5969 32.28 78.5569 32.648 78.4769 33.048H69.1889C69.2369 34.056 69.4929 34.784 69.9569 35.232C70.4209 35.664 71.0129 35.88 71.7329 35.88C72.3409 35.88 72.8449 35.728 73.2449 35.424C73.6449 35.12 73.9089 34.728 74.0369 34.248H78.3809C78.2049 35.192 77.8209 36.04 77.2289 36.792C76.6369 37.528 75.8849 38.112 74.9729 38.544C74.0609 38.96 73.0449 39.168 71.9249 39.168C70.6129 39.168 69.4449 38.896 68.4209 38.352C67.4129 37.792 66.6209 36.992 66.0449 35.952C65.4689 34.912 65.1809 33.696 65.1809 32.304C65.1809 30.896 65.4609 29.68 66.0209 28.656C66.5969 27.616 67.3969 26.824 68.4209 26.28C69.4449 25.72 70.6129 25.44 71.9249 25.44C73.2529 25.44 74.4209 25.712 75.4289 26.256C76.4369 26.8 77.2129 27.568 77.7569 28.56C78.3169 29.536 78.5969 30.664 78.5969 31.944ZM74.4449 31.32C74.4609 30.44 74.2209 29.784 73.7249 29.352C73.2449 28.904 72.6449 28.68 71.9249 28.68C71.1729 28.68 70.5489 28.904 70.0529 29.352C69.5569 29.8 69.2769 30.456 69.2129 31.32H74.4449ZM88.3203 35.472V39H86.4723C84.9043 39 83.6803 38.616 82.8003 37.848C81.9363 37.064 81.5043 35.776 81.5043 33.984V29.064H79.7043V25.608H81.5043V22.32H85.6083V25.608H88.2963V29.064H85.6083V34.056C85.6083 34.584 85.7123 34.952 85.9203 35.16C86.1443 35.368 86.5123 35.472 87.0243 35.472H88.3203ZM93.4589 18.792C93.7629 19.704 93.9149 20.648 93.9149 21.624C93.9149 22.728 93.6269 23.616 93.0509 24.288C92.4909 24.944 91.6669 25.272 90.5789 25.272V23.736C91.4109 23.736 91.8269 23.2 91.8269 22.128V21.744H90.3149V18.792H93.4589ZM101.288 25.44C102.984 25.44 104.336 25.864 105.344 26.712C106.368 27.56 107.008 28.68 107.264 30.072H103.424C103.312 29.528 103.056 29.104 102.656 28.8C102.272 28.48 101.784 28.32 101.192 28.32C100.728 28.32 100.376 28.424 100.136 28.632C99.896 28.824 99.776 29.104 99.776 29.472C99.776 29.888 99.992 30.2 100.424 30.408C100.872 30.616 101.568 30.824 102.512 31.032C103.536 31.272 104.376 31.52 105.032 31.776C105.688 32.016 106.256 32.416 106.736 32.976C107.216 33.536 107.456 34.288 107.456 35.232C107.456 36 107.248 36.68 106.832 37.272C106.416 37.864 105.816 38.328 105.032 38.664C104.248 39 103.32 39.168 102.248 39.168C100.44 39.168 98.992 38.768 97.904 37.968C96.816 37.168 96.152 36.024 95.912 34.536H99.872C99.936 35.112 100.176 35.552 100.592 35.856C101.024 36.16 101.576 36.312 102.248 36.312C102.712 36.312 103.064 36.208 103.304 36C103.544 35.776 103.664 35.488 103.664 35.136C103.664 34.672 103.44 34.344 102.992 34.152C102.56 33.944 101.848 33.728 100.856 33.504C99.864 33.296 99.048 33.072 98.408 32.832C97.768 32.592 97.216 32.208 96.752 31.68C96.288 31.136 96.056 30.4 96.056 29.472C96.056 28.272 96.512 27.304 97.424 26.568C98.336 25.816 99.624 25.44 101.288 25.44ZM119.621 25.44C120.645 25.44 121.525 25.672 122.261 26.136C122.997 26.6 123.541 27.232 123.893 28.032V25.608H127.973V38.928C127.973 40.176 127.733 41.296 127.253 42.288C126.773 43.296 126.037 44.096 125.045 44.688C124.053 45.28 122.821 45.576 121.349 45.576C119.333 45.576 117.717 45.096 116.501 44.136C115.301 43.192 114.581 41.904 114.341 40.272H118.397C118.525 40.816 118.813 41.24 119.261 41.544C119.725 41.848 120.325 42 121.061 42C121.909 42 122.589 41.752 123.101 41.256C123.629 40.776 123.893 40 123.893 38.928V36.576C123.541 37.376 122.997 38.008 122.261 38.472C121.525 38.936 120.645 39.168 119.621 39.168C118.517 39.168 117.525 38.896 116.645 38.352C115.781 37.792 115.093 36.992 114.581 35.952C114.085 34.912 113.837 33.696 113.837 32.304C113.837 30.896 114.085 29.68 114.581 28.656C115.093 27.616 115.781 26.824 116.645 26.28C117.525 25.72 118.517 25.44 119.621 25.44ZM120.941 29.04C120.061 29.04 119.349 29.328 118.805 29.904C118.277 30.48 118.013 31.28 118.013 32.304C118.013 33.328 118.277 34.128 118.805 34.704C119.349 35.28 120.061 35.568 120.941 35.568C121.805 35.568 122.509 35.272 123.053 34.68C123.613 34.088 123.893 33.296 123.893 32.304C123.893 31.296 123.613 30.504 123.053 29.928C122.509 29.336 121.805 29.04 120.941 29.04ZM137.063 25.44C138.391 25.44 139.575 25.72 140.615 26.28C141.671 26.824 142.495 27.616 143.087 28.656C143.695 29.696 143.999 30.912 143.999 32.304C143.999 33.696 143.695 34.912 143.087 35.952C142.495 36.992 141.671 37.792 140.615 38.352C139.575 38.896 138.391 39.168 137.063 39.168C135.735 39.168 134.543 38.896 133.487 38.352C132.431 37.792 131.599 36.992 130.991 35.952C130.399 34.912 130.103 33.696 130.103 32.304C130.103 30.912 130.399 29.696 130.991 28.656C131.599 27.616 132.431 26.824 133.487 26.28C134.543 25.72 135.735 25.44 137.063 25.44ZM137.063 28.992C136.279 28.992 135.615 29.28 135.071 29.856C134.543 30.416 134.279 31.232 134.279 32.304C134.279 33.376 134.543 34.192 135.071 34.752C135.615 35.312 136.279 35.592 137.063 35.592C137.847 35.592 138.503 35.312 139.031 34.752C139.559 34.192 139.823 33.376 139.823 32.304C139.823 31.232 139.559 30.416 139.031 29.856C138.503 29.28 137.847 28.992 137.063 28.992Z" fill="white"/>
</svg>
